<?xml version="1.0" standalone="no"?>
<!DOCTYPE svg PUBLIC "-//W3C//DTD SVG 20010904//EN"
 "http://www.w3.org/TR/2001/REC-SVG-20010904/DTD/svg10.dtd">
<svg version="1.0" xmlns="http://www.w3.org/2000/svg"
 width="700.000000pt" height="700.000000pt" viewBox="0 0 700.000000 700.000000"
 preserveAspectRatio="xMidYMid meet">
<metadata>
Created by potrace 1.11, written by Peter Selinger 2001-2013
</metadata>
<g transform="translate(0.000000,700.000000) scale(0.100000,-0.100000)"
fill="#000000" stroke="none">
<path d="M3270 6994 c-638 -45 -1261 -265 -1779 -629 -117 -82 -307 -235 -327
-263 -43 -62 5 -162 78 -162 39 0 53 9 194 123 384 312 875 548 1354 651 274
59 383 70 705 70 328 0 425 -9 689 -65 734 -155 1404 -568 1877 -1157 396
-492 631 -1055 711 -1702 17 -137 17 -582 0 -720 -93 -758 -414 -1429 -936
-1953 -523 -526 -1172 -849 -1916 -953 -159 -23 -640 -26 -800 -6 -1006 127
-1880 681 -2412 1530 -248 397 -406 836 -475 1323 -25 177 -25 662 0 839 89
625 324 1173 704 1644 48 60 96 120 105 135 46 68 -1 151 -85 151 -41 0 -50
-5 -90 -47 -98 -102 -257 -319 -359 -488 -267 -444 -426 -913 -490 -1450 -17
-143 -17 -596 0 -735 86 -698 329 -1289 748 -1815 116 -147 431 -458 574 -569
766 -594 1702 -844 2655 -710 605 85 1168 325 1665 710 143 111 458 422 574
569 684 858 926 1973 660 3040 -140 563 -427 1092 -822 1515 -210 226 -399
387 -637 545 -463 308 -956 490 -1525 561 -111 14 -528 26 -640 18z"/>
</g>
</svg>
